<mxfile host="app.diagrams.net" modified="2023-12-09T21:21:42.748Z" agent="Mozilla/5.0 (Windows NT 10.0; Win64; x64) AppleWebKit/537.36 (KHTML, like Gecko) Chrome/119.0.0.0 Safari/537.36" etag="6fumaFFYBvGf69XxABbN" version="22.1.7" type="github">
  <diagram name="Page-1" id="NBNa5EaHiiFZNK-fkADU">
    <mxGraphModel dx="1272" dy="1913" grid="1" gridSize="10" guides="1" tooltips="1" connect="1" arrows="1" fold="1" page="1" pageScale="1" pageWidth="850" pageHeight="1100" math="0" shadow="0">
      <root>
        <mxCell id="0" />
        <mxCell id="1" parent="0" />
        <mxCell id="4ObS7zpmPKrqbVQMe8YH-1" value="" style="whiteSpace=wrap;html=1;aspect=fixed;fillColor=#d5e8d4;strokeColor=#82b366;" vertex="1" parent="1">
          <mxGeometry x="320" y="-10" width="770" height="770" as="geometry" />
        </mxCell>
        <mxCell id="4ObS7zpmPKrqbVQMe8YH-2" value="&lt;font style=&quot;font-size: 32px;&quot;&gt;My Bibliotheque&amp;nbsp;&lt;/font&gt;" style="text;strokeColor=none;fillColor=none;html=1;fontSize=24;fontStyle=1;verticalAlign=middle;align=center;" vertex="1" parent="1">
          <mxGeometry x="635" y="20" width="100" height="40" as="geometry" />
        </mxCell>
        <mxCell id="4ObS7zpmPKrqbVQMe8YH-4" value="Actor" style="shape=umlActor;verticalLabelPosition=bottom;verticalAlign=top;html=1;outlineConnect=0;" vertex="1" parent="1">
          <mxGeometry x="70" y="150" width="70" height="90" as="geometry" />
        </mxCell>
      </root>
    </mxGraphModel>
  </diagram>
</mxfile>
